<svg width="40" height="30" viewBox="0 0 40 30" fill="none" xmlns="http://www.w3.org/2000/svg">
<path d="M1.45962 0.24646H38.5418C39.0804 0.24646 39.5169 0.682999 39.5169 1.22159V28.7783C39.5169 29.3169 39.0804 29.7535 38.5418 29.7535H1.45962C0.921036 29.7535 0.484497 29.3169 0.484497 28.7783V1.22159C0.484497 0.682999 0.921036 0.24646 1.45962 0.24646ZM8.35968 13.8609C8.35968 15.1441 6.40895 15.1441 6.40895 13.8609C6.40895 12.3259 7.12329 10.8821 8.33086 9.94339C8.25479 9.83614 8.18393 9.72512 8.1192 9.61079C7.81448 9.06984 7.64109 8.44715 7.64109 7.78573C7.64109 5.72729 9.30976 4.05862 11.3682 4.05862C13.4262 4.05862 15.0953 5.72729 15.0953 7.78573C15.0953 8.56007 14.8548 9.31362 14.4051 9.94339C15.6131 10.8821 16.3275 12.3259 16.3275 13.8609C16.3275 15.1441 14.3767 15.1441 14.3767 13.8609C14.3767 12.7535 13.7819 11.7491 12.8111 11.219C12.358 11.4108 11.86 11.5128 11.3682 11.5128C10.8764 11.5128 10.378 11.4108 9.92489 11.219C8.95448 11.7491 8.35968 12.7535 8.35968 13.8609ZM5.75462 18.2069H16.9813C17.5199 18.2069 17.9569 18.6439 17.9569 19.1825V24.9657C17.9569 25.5043 17.5199 25.9413 16.9813 25.9413H5.75462C5.21603 25.9413 4.77949 25.5043 4.77949 24.9657V19.1825C4.77949 18.6439 5.21603 18.2069 5.75462 18.2069ZM16.0062 20.1576H6.73022V23.9906H16.0062V20.1576ZM11.3682 6.00934C10.3869 6.00934 9.59181 6.80446 9.59181 7.78573C9.59181 8.78212 10.3902 9.56212 11.3682 9.56212C12.3471 9.56212 13.1446 8.77361 13.1446 7.78573C13.1446 6.80446 12.349 6.00934 11.3682 6.00934ZM20.0432 7.3851C18.7605 7.3851 18.7605 5.43437 20.0432 5.43437H34.2468C35.5295 5.43437 35.5295 7.3851 34.2468 7.3851H20.0432ZM22.2547 24.5655C20.9716 24.5655 20.9716 22.6144 22.2547 22.6144H34.2468C35.5295 22.6144 35.5295 24.5655 34.2468 24.5655H22.2547ZM20.0432 11.6801C18.7605 11.6801 18.7605 9.72937 20.0432 9.72937H34.2468C35.5295 9.72937 35.5295 11.6801 34.2468 11.6801H20.0432ZM22.2547 15.9751C20.9716 15.9751 20.9716 14.0244 22.2547 14.0244H34.2468C35.5295 14.0244 35.5295 15.9751 34.2468 15.9751H22.2547ZM22.2547 20.2706C20.9716 20.2706 20.9716 18.3194 22.2547 18.3194H34.2468C35.5295 18.3194 35.5295 20.2706 34.2468 20.2706H22.2547ZM37.5662 2.19718H2.43522V27.8027H37.5662V2.19718Z" fill="black"/>
</svg>
